<svg width="24" height="24" viewBox="0 0 24 24" fill="none" xmlns="http://www.w3.org/2000/svg">
<path fill-rule="evenodd" clip-rule="evenodd" d="M9.7894 9.78947C8.04535 9.78947 6.63151 8.37563 6.63151 6.63157C6.63151 4.88752 8.04535 3.47368 9.7894 3.47368C11.5335 3.47368 12.9473 4.88752 12.9473 6.63157C12.9473 8.37563 11.5335 9.78947 9.7894 9.78947ZM9.78925 8.52631C10.8357 8.52631 11.684 7.67801 11.684 6.63158C11.684 5.58514 10.8357 4.73684 9.78925 4.73684C8.74282 4.73684 7.89452 5.58514 7.89452 6.63158C7.89452 7.67801 8.74282 8.52631 9.78925 8.52631ZM17.3684 13.5789C15.6243 13.5789 14.2105 12.1651 14.2105 10.421C14.2105 8.67699 15.6243 7.26315 17.3684 7.26315C19.1125 7.26315 20.5263 8.67699 20.5263 10.421C20.5263 12.1651 19.1125 13.5789 17.3684 13.5789ZM17.3682 12.3158C18.4147 12.3158 19.263 11.4675 19.263 10.421C19.263 9.37461 18.4147 8.52631 17.3682 8.52631C16.3218 8.52631 15.4735 9.37461 15.4735 10.421C15.4735 11.4675 16.3218 12.3158 17.3682 12.3158ZM12.3964 16.421C13.1466 16.421 13.5271 15.6056 12.8062 15.398C12.672 15.3594 12.5353 15.3383 12.3998 15.3383H9.9577C9.75118 15.3383 9.55771 15.2374 9.4396 15.068V15.068C8.85302 14.2266 7.49438 13.5789 6.29454 13.5789V13.5789C6.13186 13.5789 5.99998 13.7108 5.99998 13.8735V17.4529C5.99998 17.8287 6.21067 18.1728 6.54539 18.3436L10.4011 20.3114C10.9187 20.5715 11.5218 20.5966 12.0557 20.3818L18.74 17.6538C19.3462 17.4064 19.3366 16.7368 18.6819 16.7368V16.7368H15.7691C15.6014 16.7368 15.4735 16.8849 15.4735 17.0526V17.0526V17.0526C15.4735 17.4014 15.1907 17.6842 14.8419 17.6842H9.97875C9.62994 17.6842 9.34717 17.4014 9.34717 17.0526V17.0526C9.34717 16.7038 9.62994 16.421 9.97875 16.421H12.3964ZM6.29454 12.3158V12.3158C6.13186 12.3158 5.99998 12.1839 5.99998 12.0212V11.6842C5.99998 11.3354 5.71722 11.0526 5.36841 11.0526H3.21051C2.65823 11.0526 2.21051 11.5003 2.21051 12.0526V19.2331C2.21051 19.7854 2.65823 20.2331 3.21051 20.2331H5.71527C5.87251 20.2331 5.99998 20.1056 5.99998 19.9484V19.9484C5.99998 19.7357 6.22469 19.5981 6.41413 19.6948L9.83043 21.4383C10.6755 21.8629 11.6569 21.9038 12.5301 21.5525L21.3964 17.934V17.934C21.6739 17.8207 21.8335 17.528 21.7786 17.2334V17.2334C21.7614 17.1412 21.723 17.0194 21.6542 16.8782C21.5495 16.6634 21.3967 16.4534 21.1885 16.2621C20.6418 15.7599 19.814 15.4737 18.6819 15.4737H15.4589C15.1338 15.4737 14.8359 15.3087 14.6101 15.0748C14.0301 14.4741 13.2237 14.0752 12.3998 14.0752H10.7283C10.4354 14.0752 10.1616 13.942 9.94745 13.7422C9.02186 12.8789 7.60631 12.3158 6.29454 12.3158ZM4.10509 18.9699C3.75628 18.9699 3.47351 18.6872 3.47351 18.3383V12.9474C3.47351 12.5986 3.75628 12.3158 4.10509 12.3158V12.3158C4.4539 12.3158 4.73667 12.5986 4.73667 12.9474V18.3383C4.73667 18.6872 4.4539 18.9699 4.10509 18.9699V18.9699Z" fill="#333333"/>
</svg>
